v -0.435921 0.25685 -0.825705 
v 0.409072 0.25685 -0.825705 
v -0.435921 0.214983 -0.821581 
v 0.409072 0.214983 -0.821581 
v -0.435921 0.174725 -0.809369 
v 0.409072 0.174725 -0.809369 
v -0.435921 0.137622 -0.789538 
v 0.409072 0.137623 -0.789538 
v -0.435921 0.105102 -0.762849 
v 0.409072 0.105102 -0.762849 
v -0.435921 0.078413 -0.730329 
v 0.409072 0.078413 -0.730329 
v -0.435921 0.058582 -0.693226 
v 0.409072 0.058582 -0.693226 
v -0.435921 0.04637 -0.652968 
v 0.409072 0.04637 -0.652968 
v -0.435921 0.042246 -0.611101 
v 0.409072 0.042246 -0.611101 
v -0.435921 0.04637 -0.569234 
v 0.409072 0.04637 -0.569234 
v -0.435921 0.058582 -0.528976 
v 0.409072 0.058582 -0.528976 
v -0.435921 0.078413 -0.491873 
v 0.409072 0.078413 -0.491873 
v -0.435921 0.105102 -0.459353 
v 0.409072 0.105102 -0.459353 
v -0.435921 0.137622 -0.432664 
v 0.409072 0.137623 -0.432664 
v -0.435921 0.174725 -0.412833 
v 0.409072 0.174725 -0.412833 
v -0.435921 0.214983 -0.40062 
v 0.409072 0.214983 -0.40062 
v -0.435921 0.25685 -0.396497 
v 0.409072 0.25685 -0.396497 
v -0.435921 0.298717 -0.40062 
v 0.409072 0.298717 -0.40062 
v -0.435921 0.338976 -0.412833 
v 0.409072 0.338976 -0.412833 
v -0.435921 0.376078 -0.432664 
v 0.409072 0.376078 -0.432664 
v -0.435921 0.408598 -0.459353 
v 0.409072 0.408598 -0.459353 
v -0.435921 0.435287 -0.491873 
v 0.409072 0.435287 -0.491873 
v -0.435921 0.455118 -0.528976 
v 0.409072 0.455118 -0.528976 
v -0.435921 0.467331 -0.569234 
v 0.409072 0.467331 -0.569234 
v -0.435921 0.471454 -0.611101 
v 0.409072 0.471454 -0.611101 
v -0.435921 0.467331 -0.652968 
v 0.409072 0.467331 -0.652968 
v -0.435921 0.455118 -0.693226 
v 0.409072 0.455118 -0.693226 
v -0.435921 0.435287 -0.730329 
v 0.409072 0.435287 -0.730329 
v -0.435921 0.408598 -0.762849 
v 0.409072 0.408598 -0.762849 
v -0.435921 0.376078 -0.789538 
v 0.409072 0.376078 -0.789538 
v -0.435921 0.338976 -0.809369 
v 0.409072 0.338976 -0.809369 
v -0.435921 0.298717 -0.821581 
v 0.409072 0.298717 -0.821581 
f 1 4 3 
f 1 2 4 
f 3 6 5 
f 3 4 6 
f 5 8 7 
f 5 6 8 
f 7 10 9 
f 7 8 10 
f 9 12 11 
f 9 10 12 
f 11 14 13 
f 11 12 14 
f 13 16 15 
f 13 14 16 
f 15 18 17 
f 15 16 18 
f 17 20 19 
f 17 18 20 
f 19 22 21 
f 19 20 22 
f 21 24 23 
f 21 22 24 
f 23 26 25 
f 23 24 26 
f 25 26 27 
f 26 28 27 
f 27 28 29 
f 28 30 29 
f 29 30 31 
f 30 32 31 
f 31 32 33 
f 32 34 33 
f 33 36 35 
f 33 34 36 
f 35 36 37 
f 36 38 37 
f 37 40 39 
f 37 38 40 
f 39 42 41 
f 39 40 42 
f 41 44 43 
f 41 42 44 
f 43 46 45 
f 43 44 46 
f 45 48 47 
f 45 46 48 
f 47 50 49 
f 47 48 50 
f 49 52 51 
f 49 50 52 
f 51 54 53 
f 51 52 54 
f 53 56 55 
f 53 54 56 
f 55 58 57 
f 55 56 58 
f 57 60 59 
f 57 58 60 
f 59 62 61 
f 59 60 62 
f 4 14 6 
f 14 8 6 
f 14 10 8 
f 14 12 10 
f 4 2 14 
f 2 64 14 
f 64 62 14 
f 62 60 14 
f 60 58 14 
f 58 56 14 
f 56 54 14 
f 54 52 14 
f 52 50 14 
f 50 48 14 
f 48 46 14 
f 46 16 14 
f 46 18 16 
f 46 20 18 
f 46 44 20 
f 44 42 20 
f 42 22 20 
f 42 40 22 
f 40 38 22 
f 38 36 22 
f 36 34 22 
f 34 32 22 
f 32 30 22 
f 30 28 22 
f 28 26 22 
f 26 24 22 
f 61 64 63 
f 61 62 64 
f 63 2 1 
f 63 64 2 
f 1 53 63 
f 53 61 63 
f 53 59 61 
f 53 57 59 
f 53 55 57 
f 1 3 53 
f 3 5 53 
f 5 7 53 
f 7 9 53 
f 9 11 53 
f 11 13 53 
f 13 51 53 
f 13 49 51 
f 13 47 49 
f 13 45 47 
f 13 15 45 
f 15 17 45 
f 17 19 45 
f 19 43 45 
f 19 41 43 
f 19 21 41 
f 21 39 41 
f 21 37 39 
f 21 35 37 
f 21 33 35 
f 21 31 33 
f 21 29 31 
f 21 27 29 
f 21 25 27 
f 21 23 25 
